<svg width="64px" height="64px" viewBox="0 0 1024 1024" class="icon" version="1.1" xmlns="http://www.w3.org/2000/svg" fill="#ffffff" stroke="#ffffff">
  <g id="SVGRepo_bgCarrier" stroke-width="0"></g>
  <g id="SVGRepo_tracerCarrier" stroke-linecap="round" stroke-linejoin="round"></g>
  <g id="SVGRepo_iconCarrier">
    <path d="M248.22 157.23h529.65a101.38 101.38 0 0 1 101.38 101.38v507.85a101.38 101.38 0 0 1-101.38 101.37H248.22a101.38 101.38 0 0 1-101.38-101.37V258.61a101.38 101.38 0 0 1 101.38-101.38z" fill="#EAF8FB"></path>
    <path d="M879.25 709.11v67.58a101.39 101.39 0 0 1-101.41 101.37H327.13a101.39 101.39 0 0 1-101.42-101.37v-67.58z" fill="#7FAEB1"></path>
    <path d="M327.13 157.23h450.71A101.39 101.39 0 0 1 879.25 258.6v405.46a101.39 101.39 0 0 1-101.41 101.37H327.13C271.12 765.43 227 772 227 751l-1.29-492.4a101.39 101.39 0 0 1 101.42-101.37z" fill="#D9F3F9"></path>
    <path d="M566.08 157.23h243.23c38.63 0 69.94 45.38 69.94 101.37v405.46c0 56-31.31 101.37-69.94 101.37H566.08z" fill="#567F85"></path>
    <path d="M278.5 366.64c51.13-65.43 134.61-108 228.91-108 91.49 0 172.78 40.1 224.24 102.24l-98.89 86.84c-25.68-39.08-72.21-65.19-125.35-65.19-56 0-104.66 29-129.31 71.6z" fill="#EAF8FB"></path>
    <path d="M781 884.75H248.53a123 123 0 0 1-122.88-122.88V659.46h41v102.4a82 82 0 0 0 81.92 81.92H781a82 82 0 0 0 81.92-81.92v-102.4h41v102.4A123 123 0 0 1 781 884.75z" fill=""></path>
    <path d="M782 782.35H247.5a122 122 0 0 1-121.85-121.86V259.06A122 122 0 0 1 247.5 137.2H782a122 122 0 0 1 121.88 121.86v401.43A122 122 0 0 1 782 782.35zM247.5 178.16a81 81 0 0 0-80.9 80.9v401.43a81 81 0 0 0 80.9 80.9H782a81 81 0 0 0 80.9-80.9V259.06a81 81 0 0 0-80.9-80.9z" fill=""></path>
    <path d="M383.33 485.95L250.46 369.26 262.37 354c27.49-35.18 64-64.36 105.51-84.39a323 323 0 0 1 139.54-31.52 319.09 319.09 0 0 1 135.78 29.74c40.53 18.88 76.57 46.52 104.24 79.92l12.69 15.32-131.55 115.54-12.93-19.68a122.13 122.13 0 0 0-44.87-40.41A135.48 135.48 0 0 0 507.41 403c-46.93 0-89.68 23.52-111.58 61.38z m-76.2-121.42l67.23 59c31.29-38.45 80.27-61.55 133-61.55A176.58 176.58 0 0 1 590 382.34a165.64 165.64 0 0 1 45.62 35.58l67-58.8A262.24 262.24 0 0 0 625.89 305a278.42 278.42 0 0 0-118.48-25.9 281.8 281.8 0 0 0-121.75 27.45 260.69 260.69 0 0 0-78.53 57.97z" fill=""></path>
    <path d="M507.41 303.65a22.54 22.54 0 0 1 22.54 22.54v45a22.54 22.54 0 0 1-22.54 22.54 22.54 22.54 0 0 1-22.54-22.54v-45a22.54 22.54 0 0 1 22.54-22.54z" fill=""></path>
  </g>
</svg>
